<?xml version="1.0" encoding="UTF-8"?>
<svg xmlns="http://www.w3.org/2000/svg" xmlns:xlink="http://www.w3.org/1999/xlink" width="19px" height="19px" viewBox="0 0 19 19" version="1.1">
<g id="surface1">
<path style=" stroke:none;fill-rule:nonzero;fill:rgb(0%,0%,0%);fill-opacity:1;" d="M 12.769531 8.667969 C 11.699219 8.667969 11.550781 9.738281 11.550781 9.738281 L 13.828125 9.738281 C 13.828125 9.738281 13.84375 8.667969 12.769531 8.667969 Z M 7.597656 9.738281 L 5.582031 9.738281 L 5.582031 11.59375 L 7.5 11.59375 C 7.789062 11.585938 8.332031 11.503906 8.332031 10.691406 C 8.332031 9.726562 7.597656 9.738281 7.597656 9.738281 Z M 7.597656 9.738281 "/>
<path style=" stroke:none;fill-rule:nonzero;fill:rgb(0%,0%,0%);fill-opacity:1;" d="M 9.5 1.1875 C 4.90625 1.1875 1.1875 4.90625 1.1875 9.5 C 1.1875 14.09375 4.90625 17.8125 9.5 17.8125 C 14.09375 17.8125 17.8125 14.09375 17.8125 9.5 C 17.8125 4.90625 14.09375 1.1875 9.5 1.1875 Z M 11.253906 6.292969 L 14.109375 6.292969 L 14.109375 7.148438 L 11.253906 7.148438 Z M 9.804688 10.777344 C 9.804688 12.890625 7.597656 12.824219 7.597656 12.824219 L 3.992188 12.824219 L 3.992188 5.886719 L 7.597656 5.886719 C 8.699219 5.886719 9.566406 6.488281 9.566406 7.734375 C 9.566406 8.976562 8.507812 9.054688 8.507812 9.054688 C 9.898438 9.054688 9.804688 10.777344 9.804688 10.777344 Z M 15.15625 10.660156 L 11.558594 10.660156 C 11.558594 11.949219 12.78125 11.867188 12.78125 11.867188 C 13.933594 11.867188 13.894531 11.125 13.894531 11.125 L 15.113281 11.125 C 15.113281 13.105469 12.738281 12.964844 12.738281 12.964844 C 9.894531 12.964844 10.074219 10.3125 10.074219 10.3125 C 10.074219 10.3125 10.070312 7.648438 12.738281 7.648438 C 15.546875 7.652344 15.15625 10.660156 15.15625 10.660156 Z M 15.15625 10.660156 "/>
<path style=" stroke:none;fill-rule:nonzero;fill:rgb(0%,0%,0%);fill-opacity:1;" d="M 8.089844 7.839844 C 8.089844 7.121094 7.597656 7.121094 7.597656 7.121094 L 5.582031 7.121094 L 5.582031 8.667969 L 7.472656 8.667969 C 7.800781 8.667969 8.089844 8.5625 8.089844 7.839844 Z M 8.089844 7.839844 "/>
</g>
</svg>
