<?xml version="1.0" encoding="UTF-8"?>
<svg xmlns="http://www.w3.org/2000/svg" xmlns:xlink="http://www.w3.org/1999/xlink" width="16px" height="16px" viewBox="0 0 16 16" version="1.1">
<g id="surface1">
<path style=" stroke:none;fill-rule:nonzero;fill:rgb(0%,0%,0%);fill-opacity:1;" d="M 4.511719 0 C 7.003906 0 9.023438 3.566406 9.023438 7.964844 C 9.023438 12.367188 7.003906 15.933594 4.511719 15.933594 C 2.019531 15.933594 0 12.367188 0 7.964844 C 0 3.566406 2.019531 0 4.511719 0 Z M 11.71875 0.464844 C 12.964844 0.464844 13.976562 3.824219 13.976562 7.964844 C 13.976562 12.109375 12.964844 15.464844 11.71875 15.464844 C 10.472656 15.464844 9.460938 12.109375 9.460938 7.964844 C 9.460938 3.824219 10.472656 0.464844 11.71875 0.464844 Z M 15.207031 1.246094 C 15.644531 1.246094 16 4.257812 16 7.964844 C 16 11.675781 15.644531 14.6875 15.207031 14.6875 C 14.769531 14.6875 14.414062 11.675781 14.414062 7.964844 C 14.414062 4.257812 14.769531 1.246094 15.207031 1.246094 Z M 15.207031 1.246094 "/>
</g>
</svg>
